<svg width="16" height="16" viewBox="0 0 16 16" fill="none" xmlns="http://www.w3.org/2000/svg">
<g id="icon_study">
<path id="Subtract" fill-rule="evenodd" clip-rule="evenodd" d="M8.70322 0.694992C8.31367 0.310002 7.68691 0.310003 7.29736 0.694993L5.9388 2.03765C5.75306 2.22121 5.50289 2.32483 5.24176 2.32637L3.33171 2.33762C2.78403 2.34084 2.34084 2.78403 2.33762 3.33171L2.32637 5.24176C2.32483 5.50289 2.22121 5.75306 2.03765 5.9388L0.694992 7.29736C0.310002 7.68691 0.310003 8.31367 0.694993 8.70322L2.03765 10.0618C2.22121 10.2475 2.32483 10.4977 2.32637 10.7588L2.33762 12.6689C2.34084 13.2165 2.78403 13.6597 3.33171 13.663L5.24176 13.6742C5.50289 13.6757 5.75306 13.7794 5.9388 13.9629L7.29736 15.3056C7.68691 15.6906 8.31367 15.6906 8.70322 15.3056L10.0618 13.9629C10.2475 13.7794 10.4977 13.6757 10.7588 13.6742L12.6689 13.663C13.2165 13.6597 13.6597 13.2165 13.663 12.6689L13.6742 10.7588C13.6757 10.4977 13.7794 10.2475 13.9629 10.0618L15.3056 8.70322C15.6906 8.31367 15.6906 7.68691 15.3056 7.29736L13.9629 5.9388C13.7794 5.75306 13.6757 5.50289 13.6742 5.24176L13.663 3.33171C13.6597 2.78403 13.2165 2.34084 12.6689 2.33762L10.7588 2.32637C10.4977 2.32483 10.2475 2.22121 10.0618 2.03765L8.70322 0.694992ZM10.2661 5.56124C10.3682 5.5927 10.4162 5.63187 10.6682 5.88906C10.844 6.06843 10.972 6.21888 11 6.27887C11.0622 6.41222 11.063 6.60475 11.0019 6.73519C10.9687 6.806 10.4665 7.3408 9.20542 8.64839C7.50406 10.4124 7.45171 10.4643 7.33799 10.4986C7.19212 10.5426 7.15753 10.5426 7.012 10.4983C6.90026 10.4643 6.85561 10.4219 6.0167 9.55363C5.40623 8.92177 5.12452 8.61485 5.09294 8.54717C5.03998 8.43368 5.0321 8.26158 5.07386 8.13029C5.10824 8.02219 5.61864 7.47149 5.75351 7.39697C5.87662 7.32897 6.08588 7.33114 6.21657 7.40175C6.27474 7.43319 6.48812 7.63377 6.75016 7.90337L7.18684 8.3526L8.50549 6.9861C9.23075 6.23451 9.84837 5.60672 9.87798 5.591C10.0075 5.52229 10.1134 5.51417 10.2661 5.56124Z" fill="white"/>
</g>
</svg>
